<svg xmlns="http://www.w3.org/2000/svg" style="display: none;">

    <symbol id="github" xmlns="http://www.w3.org/2000/svg" viewBox="0 0 640 640">
    <!--!Font Awesome Free v7.2.0 by @fontawesome - https://fontawesome.com License - https://fontawesome.com/license/free Copyright 2026 Fonticons, Inc.--> 
    
        <path fill="currentColor"
            d="M237.9 461.4C237.9 463.4 235.6 465 232.7 465C229.4 465.3 227.1 463.7 227.1 461.4C227.1 459.4 229.4 457.8 232.3 457.8C235.3 457.5 237.9 459.1 237.9 461.4zM206.8 456.9C206.1 458.9 208.1 461.2 211.1 461.8C213.7 462.8 216.7 461.8 217.3 459.8C217.9 457.8 216 455.5 213 454.6C210.4 453.9 207.5 454.9 206.8 456.9zM251 455.2C248.1 455.9 246.1 457.8 246.4 460.1C246.7 462.1 249.3 463.4 252.3 462.7C255.2 462 257.2 460.1 256.9 458.1C256.6 456.2 253.9 454.9 251 455.2zM316.8 72C178.1 72 72 177.3 72 316C72 426.9 141.8 521.8 241.5 555.2C254.3 557.5 258.8 549.6 258.8 543.1C258.8 536.9 258.5 502.7 258.5 481.7C258.5 481.7 188.5 496.7 173.8 451.9C173.8 451.9 162.4 422.8 146 415.3C146 415.3 123.1 399.6 147.6 399.9C147.6 399.9 172.5 401.9 186.2 425.7C208.1 464.3 244.8 453.2 259.1 446.6C261.4 430.6 267.9 419.5 275.1 412.9C219.2 406.7 162.8 398.6 162.8 302.4C162.8 274.9 170.4 261.1 186.4 243.5C183.8 237 175.3 210.2 189 175.6C209.9 169.1 258 202.6 258 202.6C278 197 299.5 194.1 320.8 194.1C342.1 194.1 363.6 197 383.6 202.6C383.6 202.6 431.7 169 452.6 175.6C466.3 210.3 457.8 237 455.2 243.5C471.2 261.2 481 275 481 302.4C481 398.9 422.1 406.6 366.2 412.9C375.4 420.8 383.2 435.8 383.2 459.3C383.2 493 382.9 534.7 382.9 542.9C382.9 549.4 387.5 557.3 400.2 555C500.2 521.8 568 426.9 568 316C568 177.3 455.5 72 316.8 72zM169.2 416.9C167.9 417.9 168.2 420.2 169.9 422.1C171.5 423.7 173.8 424.4 175.1 423.1C176.4 422.1 176.1 419.8 174.4 417.9C172.8 416.3 170.5 415.6 169.2 416.9zM158.4 408.8C157.7 410.1 158.7 411.7 160.7 412.7C162.3 413.7 164.3 413.4 165 412C165.7 410.7 164.7 409.1 162.7 408.1C160.7 407.5 159.1 407.8 158.4 408.8zM190.8 444.4C189.2 445.7 189.8 448.7 192.1 450.6C194.4 452.9 197.3 453.2 198.6 451.6C199.9 450.3 199.3 447.3 197.3 445.4C195.1 443.1 192.1 442.8 190.8 444.4zM179.4 429.7C177.8 430.7 177.8 433.3 179.4 435.6C181 437.9 183.7 438.9 185 437.9C186.6 436.6 186.6 434 185 431.7C183.6 429.4 181 428.4 179.4 429.7z"/>
    </symbol>

    <symbol id="medium" xmlns="http://www.w3.org/2000/svg" viewBox="0 0 640 640">
    <!--!Font Awesome Free v7.2.0 by @fontawesome - https://fontawesome.com License - https://fontawesome.com/license/free Copyright 2026 Fonticons, Inc.-->
    
        <path fill="currentColor"
            d="M465.4 96C508.8 96 544 131.2 544 174.6L544 258.4C542.1 258.3 540.2 258.2 538.3 258.2L537.9 258.2C527.9 258.2 515.6 260.6 506.8 265C496.8 269.6 488.1 276.5 480.8 285.6C469 300.2 461.9 319.9 460.2 342C460.1 342.7 460.1 343.3 460 344C459.9 344.7 459.9 345.2 459.9 345.9C459.8 347.1 459.8 348.3 459.8 349.5C459.8 351.4 459.7 353.3 459.8 355.3C461 405.4 488 445.5 536.1 445.5C538.8 445.5 541.4 445.4 544 445.1L544 465.5C544 508.9 508.8 544.1 465.4 544.1L174.6 544C131.2 544 96 508.8 96 465.4L96 174.6C96 131.2 131.2 96 174.6 96L465.4 96zM178.3 202.9L178.6 203C191.8 206 198.4 210.4 198.4 226.4L198.4 413.6C198.4 429.6 191.7 434 178.5 437L178.2 437.1L178.2 439.9L231 439.9L231 437.1L230.7 437C217.5 434 210.8 429.6 210.8 413.6L210.8 237.3L296.9 439.8L301.8 439.8L390.4 231.6L390.4 418.2C389.3 430.8 382.6 434.7 370.7 437.4L370.4 437.5L370.4 440.2L462.3 440.2L462.3 437.5L462 437.4C450.1 434.7 443.3 430.8 442.1 418.2L442 226.4L442.1 226.4C442.1 210.4 448.8 206 462 203L462.3 202.9L462.3 200.2L390.1 200.2L323.1 357.6L256.1 200.2L178.3 200.2L178.3 202.9zM544 404.3C518.9 396.9 501 369.2 502.8 336.5L502.8 336.5L543.9 336.5L543.9 404.3zM537.6 268.7C539.9 268.7 542 269 544 269.6L544 327L503.8 327C505.3 293.4 517.4 269.1 537.6 268.7z"/>
    </symbol>

    <symbol id="bluesky" xmlns="http://www.w3.org/2000/svg" viewBox="0 0 640 640">
    <!--!Font Awesome Free v7.2.0 by @fontawesome - https://fontawesome.com License - https://fontawesome.com/license/free Copyright 2026 Fonticons, Inc.--> 
    
        <path fill="currentColor"
            d="M439.8 358.7C436.5 358.3 433.1 357.9 429.8 357.4C433.2 357.8 436.5 358.3 439.8 358.7zM320 291.1C293.9 240.4 222.9 145.9 156.9 99.3C93.6 54.6 69.5 62.3 53.6 69.5C35.3 77.8 32 105.9 32 122.4C32 138.9 41.1 258 47 277.9C66.5 343.6 136.1 365.8 200.2 358.6C203.5 358.1 206.8 357.7 210.2 357.2C206.9 357.7 203.6 358.2 200.2 358.6C106.3 372.6 22.9 406.8 132.3 528.5C252.6 653.1 297.1 501.8 320 425.1C342.9 501.8 369.2 647.6 505.6 528.5C608 425.1 533.7 372.5 439.8 358.6C436.5 358.2 433.1 357.8 429.8 357.3C433.2 357.7 436.5 358.2 439.8 358.6C503.9 365.7 573.4 343.5 593 277.9C598.9 258 608 139 608 122.4C608 105.8 604.7 77.7 586.4 69.5C570.6 62.4 546.4 54.6 483.2 99.3C417.1 145.9 346.1 240.4 320 291.1z"/>
    </symbol>

    <symbol id="twitter" viewBox="0 0 24 24">
        <path fill="currentColor"
            d="M22.991 3.95a1 1 0 0 0-1.51-.86a7.5 7.5 0 0 1-1.874.794a5.15 5.15 0 0 0-3.374-1.242a5.23 5.23 0 0 0-5.223 5.063a11.03 11.03 0 0 1-6.814-3.924a1.01 1.01 0 0 0-.857-.365a1 1 0 0 0-.785.5a5.28 5.28 0 0 0-.242 4.769l-.002.001a1.04 1.04 0 0 0-.496.89a3 3 0 0 0 .027.439a5.2 5.2 0 0 0 1.568 3.312a1 1 0 0 0-.066.77a5.2 5.2 0 0 0 2.362 2.922a7.5 7.5 0 0 1-3.59.448A1 1 0 0 0 1.45 19.3a12.94 12.94 0 0 0 7.01 2.061a12.79 12.79 0 0 0 12.465-9.363a12.8 12.8 0 0 0 .535-3.646l-.001-.2a5.77 5.77 0 0 0 1.532-4.202m-3.306 3.212a1 1 0 0 0-.234.702c.01.165.009.331.009.488a10.8 10.8 0 0 1-.454 3.08a10.685 10.685 0 0 1-10.546 7.93a11 11 0 0 1-2.55-.301a9.5 9.5 0 0 0 2.942-1.564a1 1 0 0 0-.602-1.786a3.2 3.2 0 0 1-2.214-.935q.224-.042.445-.105a1 1 0 0 0-.08-1.943a3.2 3.2 0 0 1-2.25-1.726a5 5 0 0 0 .545.046a1.02 1.02 0 0 0 .984-.696a1 1 0 0 0-.4-1.137a3.2 3.2 0 0 1-1.425-2.673q0-.1.006-.198a13 13 0 0 0 8.21 3.48a1.02 1.02 0 0 0 .817-.36a1 1 0 0 0 .206-.867a3.2 3.2 0 0 1-.087-.729a3.23 3.23 0 0 1 3.226-3.226a3.18 3.18 0 0 1 2.345 1.02a.99.99 0 0 0 .921.298a9 9 0 0 0 1.212-.322a6.7 6.7 0 0 1-1.026 1.524" />
    </symbol>

</svg>