<svg xmlns="http://www.w3.org/2000/svg" style="display: none;">

    <symbol id="quote-left" viewBox="0 0 24 24">
        <path fill="currentColor"
            d="M3.691 6.292C5.094 4.771 7.217 4 10 4h1v2.819l-.804.161c-1.37.274-2.323.813-2.833 1.604A2.9 2.9 0 0 0 6.925 10H10a1 1 0 0 1 1 1v7c0 1.103-.897 2-2 2H3a1 1 0 0 1-1-1v-5l.003-2.919c-.009-.111-.199-2.741 1.688-4.789M20 20h-6a1 1 0 0 1-1-1v-5l.003-2.919c-.009-.111-.199-2.741 1.688-4.789C16.094 4.771 18.217 4 21 4h1v2.819l-.804.161c-1.37.274-2.323.813-2.833 1.604A2.9 2.9 0 0 0 17.925 10H21a1 1 0 0 1 1 1v7c0 1.103-.897 2-2 2" />
    </symbol>

    <symbol id="arrow-right" viewBox="0 0 24 24">
        <path fill="none" stroke="currentColor" stroke-linecap="round" stroke-linejoin="round" stroke-width="2.5"
            d="M13.5 4.5L21 12m0 0l-7.5 7.5M21 12H3" />
    </symbol>

    <symbol id="arrow-left" viewBox="0 0 24 24">
        <path fill="none" stroke="currentColor" stroke-linecap="round" stroke-linejoin="round" stroke-width="1.5"
            d="M10.5 19.5L3 12m0 0l7.5-7.5M3 12h18" />
    </symbol>

    <symbol id="search" xmlns="http://www.w3.org/2000/svg" viewBox="0 0 32 32">
        <path fill="currentColor"
            d="M19 3C13.488 3 9 7.488 9 13c0 2.395.84 4.59 2.25 6.313L3.281 27.28l1.439 1.44l7.968-7.969A9.922 9.922 0 0 0 19 23c5.512 0 10-4.488 10-10S24.512 3 19 3zm0 2c4.43 0 8 3.57 8 8s-3.57 8-8 8s-8-3.57-8-8s3.57-8 8-8z" />
    </symbol>

    <symbol id="close" xmlns="http://www.w3.org/2000/svg"  viewBox="0 0 16 16">
        <path stroke="rgba(255,255,255,1)"
            d="M2.146 2.854a.5.5 0 1 1 .708-.708L8 7.293l5.146-5.147a.5.5 0 0 1 .708.708L8.707 8l5.147 5.146a.5.5 0 0 1-.708.708L8 8.707l-5.146 5.147a.5.5 0 0 1-.708-.708L7.293 8 2.146 2.854Z" />
    </symbol>
    
</svg>

